<?xml version="1.0" encoding="utf-8"?>
<!-- Generator: Adobe Illustrator 28.0.0, SVG Export Plug-In . SVG Version: 6.00 Build 0)  -->
<svg version="1.1" id="Layer_1" xmlns="http://www.w3.org/2000/svg" xmlns:xlink="http://www.w3.org/1999/xlink" x="0px" y="0px"
	 viewBox="0 0 2100 2100" style="enable-background:new 0 0 2100 2100;" xml:space="preserve">
<style type="text/css">
	.st0{fill:#BEBEBE;}
</style>
<g>
	<path class="st0" d="M1636.7,958.4c-15.1-15.6-36-24.5-57.7-24.5c-21.8,0-42.6,8.8-57.7,24.5c-15.1,15.6-23.3,36.7-22.5,58.5v116.9
		c0,245.6-191.8,441.8-435.6,448.6c-4.7-0.8-9.5-1.2-14.4-1.1c-4.1,0.1-8.1,0.4-12,1.1c-243.7-6.9-435.5-203-435.5-448.6v-116.9
		c0.3-21.6-8.2-42.5-23.5-57.8s-36.1-23.8-57.8-23.5c-44.3,0.6-79.8,37-79.2,81.3v116.9c0,308.9,230.6,564.5,528.8,604v157.8H833.3
		c-21.8-0.8-43,7.3-58.7,22.4s-24.6,36-24.6,57.8s8.9,42.7,24.6,57.8c15.7,15.1,36.9,23.2,58.7,22.4h433.3
		c21.8,0.8,43-7.3,58.7-22.4s24.6-36,24.6-57.8s-8.9-42.7-24.6-57.8c-15.7-15.1-36.9-23.2-58.7-22.4h-136.2v-157.8
		c298.2-39.4,528.8-295.1,528.8-604v-116.9C1660,995.1,1651.8,974,1636.7,958.4z"/>
	<path class="st0" d="M1050,1446.4c181.8,0,330.6-148.8,330.6-330.6V374.5c0-181.8-148.9-330.6-330.6-330.6
		c-181.8,0-330.6,148.8-330.6,330.6v741.2C719.4,1297.5,868.2,1446.4,1050,1446.4z M879.9,374.5c0-95.6,74.5-170.1,170.1-170.1
		s170.1,74.5,170.1,170.1v741.2c0,95.6-74.5,170.1-170.1,170.1s-170.1-74.5-170.1-170.1V374.5z"/>
</g>
</svg>
